<svg width="16" height="17" viewBox="0 0 16 17" fill="none" xmlns="http://www.w3.org/2000/svg">
<g id="&#235;&#136;&#136;&#235;&#129;&#148;">
<path id="Union" fill-rule="evenodd" clip-rule="evenodd" d="M11.4853 4.00781L3 12.3155L3.70711 13.0078L12.1924 4.70012L11.4853 4.00781ZM15 8.39922C12.4958 11.665 9.01841 12.8883 5.78516 12.0691L6.70675 11.1668C7.03282 11.2766 7.38402 11.3364 7.75 11.3364C9.46603 11.3364 10.8571 10.0214 10.8571 8.39922C10.8571 8.01687 10.7799 7.65159 10.6393 7.31656L12.1904 5.79788C13.2061 6.43411 14.158 7.30123 15 8.39922ZM7.75 10.3574C7.68024 10.3574 7.61128 10.3541 7.54329 10.3477L9.8028 8.13551C9.81509 8.22176 9.82143 8.30979 9.82143 8.39922C9.82143 9.48067 8.89402 10.3574 7.75 10.3574ZM5.7015 8.69157L7.98714 6.45377C7.90932 6.44539 7.83019 6.44108 7.75 6.44108C6.60598 6.44108 5.67857 7.31777 5.67857 8.39922C5.67857 8.49857 5.6864 8.59619 5.7015 8.69157ZM7.75 5.46201C8.1253 5.46201 8.48507 5.52491 8.81813 5.64016L9.74146 4.73616C6.50069 3.90345 3.01111 5.12447 0.5 8.39922C1.34761 9.50459 2.3067 10.376 3.33008 11.0134L4.8706 9.50508C4.72376 9.16374 4.64286 8.79041 4.64286 8.39922C4.64286 6.77704 6.03397 5.46201 7.75 5.46201Z" fill="white" fill-opacity="0.4"/>
</g>
</svg>
