<svg width="60" height="22" viewBox="0 0 60 22" fill="none" xmlns="http://www.w3.org/2000/svg">
<rect y="0.5" width="60" height="21" rx="2" fill="white" fill-opacity="0.1"/>
<path d="M7.9 11.768H6.316V15.5H5.2V6.704H7.96C9.748 6.704 11.032 7.34 11.032 9.176C11.032 10.58 10.24 11.36 9.04 11.648L11.296 15.5H10.036L7.9 11.768ZM7.792 10.868C9.196 10.868 9.928 10.328 9.928 9.176C9.928 8.012 9.196 7.604 7.792 7.604H6.316V10.868H7.792ZM15.3492 15.656C13.6212 15.656 12.2292 14.408 12.2292 12.248C12.2292 10.136 13.6572 8.816 15.1692 8.816C16.8252 8.816 17.7612 10.016 17.7612 11.876C17.7612 12.116 17.7492 12.344 17.7132 12.5H13.3212C13.4052 13.904 14.2332 14.78 15.4812 14.78C16.1172 14.78 16.6332 14.588 17.1132 14.264L17.5092 14.984C16.9332 15.356 16.2612 15.656 15.3492 15.656ZM16.8012 11.72C16.8012 10.364 16.2012 9.692 15.1812 9.692C14.2572 9.692 13.4412 10.436 13.3092 11.72H16.8012ZM21.0697 15.656C20.1457 15.656 19.2577 15.272 18.6337 14.756L19.1737 14.036C19.7377 14.504 20.3257 14.804 21.1057 14.804C21.9697 14.804 22.3897 14.348 22.3897 13.784C22.3897 13.124 21.6217 12.836 20.9017 12.548C19.9897 12.224 18.9577 11.756 18.9577 10.664C18.9577 9.644 19.7857 8.816 21.2017 8.816C22.0177 8.816 22.7137 9.152 23.2297 9.548L22.7017 10.256C22.2337 9.92 21.7897 9.68 21.2017 9.68C20.3857 9.68 20.0137 10.1 20.0137 10.616C20.0137 11.24 20.7217 11.456 21.4537 11.744C22.4017 12.092 23.4457 12.5 23.4457 13.724C23.4457 14.78 22.6057 15.656 21.0697 15.656ZM27.607 15.656C25.879 15.656 24.487 14.408 24.487 12.248C24.487 10.136 25.915 8.816 27.427 8.816C29.083 8.816 30.019 10.016 30.019 11.876C30.019 12.116 30.007 12.344 29.971 12.5H25.579C25.663 13.904 26.491 14.78 27.739 14.78C28.375 14.78 28.891 14.588 29.371 14.264L29.767 14.984C29.191 15.356 28.519 15.656 27.607 15.656ZM29.059 11.72C29.059 10.364 28.459 9.692 27.439 9.692C26.515 9.692 25.699 10.436 25.567 11.72H29.059ZM32.924 15.656C31.832 15.656 31.028 14.936 31.028 13.748C31.028 12.068 32.456 11.408 35.036 11.372C35.036 10.532 34.76 9.728 33.692 9.728C32.924 9.728 32.192 10.016 31.676 10.364L31.244 9.584C31.856 9.2 32.816 8.816 33.872 8.816C35.456 8.816 36.128 9.896 36.128 11.492V15.5H35.228L35.132 14.804H35.096C34.472 15.32 33.74 15.656 32.924 15.656ZM33.236 14.78C33.872 14.78 34.4 14.588 35.036 14.024V12.092C32.72 12.248 32.096 12.668 32.096 13.676C32.096 14.444 32.564 14.78 33.236 14.78ZM39.1095 8.984L39.2055 10.172H39.2415C39.7095 9.344 40.3575 8.816 41.0895 8.816C41.3775 8.816 41.5815 8.852 41.7855 8.96L41.5815 9.92C41.3535 9.836 41.2215 9.812 40.9455 9.812C40.4175 9.812 39.7215 10.196 39.3015 11.312V15.5H38.2095V8.984H39.1095ZM45.4298 15.656C43.7018 15.656 42.3698 14.408 42.3698 12.248C42.3698 10.076 43.8458 8.816 45.5138 8.816C46.3778 8.816 46.9538 9.164 47.4218 9.584L46.8578 10.316C46.4738 9.968 46.0778 9.728 45.5498 9.728C44.3738 9.728 43.5098 10.748 43.5098 12.248C43.5098 13.748 44.3258 14.744 45.5258 14.744C46.1378 14.744 46.6418 14.468 47.0618 14.096L47.5298 14.828C46.9538 15.356 46.2098 15.656 45.4298 15.656ZM50.0593 5.948V8.564L50.0233 9.908C50.6353 9.296 51.2833 8.816 52.1833 8.816C53.5873 8.816 54.1753 9.68 54.1753 11.372V15.5H53.0833V11.516C53.0833 10.268 52.7113 9.776 51.8473 9.776C51.1753 9.776 50.7193 10.112 50.0593 10.772V15.5H48.9673V5.948H50.0593Z" fill="white" fill-opacity="0.6"/>
</svg>
